<svg xmlns="http://www.w3.org/2000/svg" viewBox="0 0 84.38 115.64"><defs><style>.cls-1{fill:#706a6a;}</style></defs><title>Asset 2</title><g id="Layer_2" data-name="Layer 2"><g id="Layer_1-2" data-name="Layer 1"><path class="cls-1" d="M84.26,40.73a13.48,13.48,0,0,0-6.94-9.33,5.84,5.84,0,0,0-.24-1.51c1.4-1,2.72-3.09,1.88-6.42-1.11-4.46-1.88-5.72-5.16-6.1-1.43-.17-2.79-1.82-3.17-2.63a6.87,6.87,0,0,0-1.37-5.61c-1.74-1.88-4-3.81-7.12-3.81A8,8,0,0,0,61,5.41a9.35,9.35,0,0,0-6.29-2.73,8.19,8.19,0,0,0-3.22.67A8.22,8.22,0,0,0,44.82.2a12.15,12.15,0,0,0-4,.74A12.52,12.52,0,0,0,36.21,0a9,9,0,0,0-5.69,1.91L28.68,3.33C26,5.44,24.48,6.61,23.44,7c-.17.06-.62.14-1,.22-1.89.37-4.75.92-5.8,3.08a4.33,4.33,0,0,0,.18,3.84,1.82,1.82,0,0,1-.89,1.31,11.19,11.19,0,0,1-1.34.69c-2.34,1.11-6.5,3.08-7,7.62a6.29,6.29,0,0,0-2.26.64A4.21,4.21,0,0,0,3.07,28.3c0,2.16.64,3.33,1.36,4a7.12,7.12,0,0,0-.74,4.64,5.91,5.91,0,0,0,2.77,3.7,2.61,2.61,0,0,1-1,1.44C4,43.06.38,47.19,0,51.44a6.93,6.93,0,0,0,2.12,5.73,10.3,10.3,0,0,0,7.27,3.18,8.7,8.7,0,0,0,1.52-.13,4.57,4.57,0,0,0,2.85,3.87,3.33,3.33,0,0,1,.67.58c-.22.21-.61.51-.91.74-1.65,1.29-4.42,3.45-3,6.42a5.63,5.63,0,0,0,2.14,2.62,6.45,6.45,0,0,1-.7.71c-2.52,2.21-4,4.38-3.88,8.33a8,8,0,0,1-.53,2.83c-.5,1.55-1.19,3.67,1.29,5.36a5.68,5.68,0,0,0,3.23,1.08,4.87,4.87,0,0,0,2.12-.49,5.51,5.51,0,0,0,1,.31A5.84,5.84,0,0,0,15.88,96a4.4,4.4,0,0,0,2.35,1.94,1.78,1.78,0,0,1-.4,1.93c-1.59,1.37-2.33,3.06-1.91,4.42a2.31,2.31,0,0,0,2,1.63l.19,0,.19,0c.39-.06,1.16-.19,1.84-.36a6.1,6.1,0,0,0,3.14,1.12,3.16,3.16,0,0,0,1.34-.29,7,7,0,0,0,1.71,1.3,1.57,1.57,0,0,1-.23.34c-.92,1-2.5,4-2.11,5.75a1.93,1.93,0,0,0,1.13,1.41,2.3,2.3,0,0,0,.95.19A4.56,4.56,0,0,0,30,112a1.85,1.85,0,0,0,0,.23c.56,2.82,1.76,3.41,2.67,3.41a2.17,2.17,0,0,0,1.86-1.16,4.86,4.86,0,0,0,.61-1.71,1.83,1.83,0,0,1,.8-1.43A9.26,9.26,0,0,1,38,110.4c1.88-.7,4-1.5,4.31-3.54,0-.27.07-.52.1-.78.18-1.55.28-2.48,1.85-3.52a1.52,1.52,0,0,1,.88-.24,9.07,9.07,0,0,1,2.88.79,8.93,8.93,0,0,0,3.08.81,3,3,0,0,0,.68-.07,5.91,5.91,0,0,0,1.92-.77,4.42,4.42,0,0,0,1.6,1.18,7.93,7.93,0,0,0-.61,4.94,3.63,3.63,0,0,0,2,2.29,9.5,9.5,0,0,0,3.87,1,4.2,4.2,0,0,0,4.54-3.88c.25-2.48.42-2.75,1.66-3.79a12.39,12.39,0,0,0,1.53-1.46,3.19,3.19,0,0,0,.54,0,2.61,2.61,0,0,0,2-.82,4.25,4.25,0,0,0,.84-3.32,9.56,9.56,0,0,1,0-1.2l.12.11c.56.52.51-.47.18-1.95.27-1.48.2-2.73-1.55-5-.17-.4-.33-.76-.48-1s-.26-.5-.36-.72a4,4,0,0,0,1.84.46,3.87,3.87,0,0,0,.48,0l1.27-.15V88.46a1,1,0,0,0,0-.15h0c.92,1,2,2.23,3.32,2.23A2.15,2.15,0,0,0,78,89.88a3.41,3.41,0,0,0,1.23-2.79A4.9,4.9,0,0,0,77.45,84l-.65-.55c-.91-.75-1.07-.89-.92-2.3.07-.67.17-1.26.26-1.84.27-1.64.53-3.19-.27-4.79-1.34-2.67-1.62-3.71-1.62-4.11a2.48,2.48,0,0,0-.84-2,1.3,1.3,0,0,1-.41-.82,5.53,5.53,0,0,1-.08-3.18,8.34,8.34,0,0,1,.73-.53c1.42-1,3.73-2.57,4-6.06a14.2,14.2,0,0,0,3.52-12.35,5.21,5.21,0,0,0,2.61-1.83A3.57,3.57,0,0,0,84.26,40.73Zm-8.83-5.46c-.6,1.2-3-.74-4.63-.59s.3,2.38.3,4.17a1.93,1.93,0,0,1-.14.79c-.16-.4-.34-.81-.53-1.23C69.35,36,68.54,35,67.73,32.6a15.65,15.65,0,0,0-2.15-4.23,7.27,7.27,0,0,1,4.12,3.72,9,9,0,0,0-4.12-7.53A6.81,6.81,0,0,1,70,28.19a13.1,13.1,0,0,0-.33-2.52c.86,1,1.83,1.47,1.76.17-.08-1.54-1.88-4.27-.6-5s2.14,2.13,3,4.09.6,2,1,2.81c.28.5.39,1,.59,1.47l-.19.07a4,4,0,0,1,.54,3C74.09,33.83,76,34.08,75.43,35.27Zm-20,13.27a27,27,0,0,1-1.82-2.78c.14.69.47,2.78.47,2.78L52.6,46.11a9.34,9.34,0,0,1,.54,2.29c0,.42-.46.55-.91.58q-.13-.27-.27-.57a11.17,11.17,0,0,0-1-2.71c-.55-1.08-.27-2.16.67-3.92.78-1.44-.27-2.43-.74-3.41A.4.4,0,0,1,51,38c.28-.18.65,0,.88-.28s.23-1.52.69-1.66,1.07.32,1.58.51a2.79,2.79,0,0,1-.13-1.28l.43-.16a3.86,3.86,0,0,1,1.34-.23.86.86,0,0,0,.77,1,.85.85,0,0,0,.89-.6,7.37,7.37,0,0,1,.69.38c-.09.8-.82,1.84-1.49,1.83,0,1,1.84.26,1.84.26a1.07,1.07,0,0,1,.53,1.15c-.09.88-1.4.26-2.2,0a23.92,23.92,0,0,0-3.78-.35,22,22,0,0,1,3.69,1.93c.8.71,1.41,1.15,3.17.53a1.06,1.06,0,0,0,.67-1.62c.73.42,1.1.28,1.58.88,0,1.89-.41,2-1.22,3.24a5.4,5.4,0,0,0-1.08,2.84c-.13,1.08-.81.67-.4,1.75s-1,2.57-1,2.57a36.11,36.11,0,0,0-3.65-4.86ZM67.86,74.48a6.71,6.71,0,0,0-.75,1.17c-3-1.58-3.43-4.77-2.57-5.92s2.53,1,5.07,2.09a8.5,8.5,0,0,0,.89.32c.11,1-.89,1.19-1.56,1.26S68.27,73.94,67.86,74.48Zm4.44-5a6.31,6.31,0,0,1-.51-.91v0a2.28,2.28,0,0,0,.58.87ZM71.59,68c0,.19.1.35.15.49C71.69,68.3,71.64,68.14,71.59,68ZM66,62.12c-.3,1.05-2.54,1.05-2.54,1.05-.82-.59-.81-2.29-.84-3.2.27-.34.6-.71,1-1.16.82-.88,1.46-.52,2.63.33C66,60,66.27,61.3,66,62.12Zm-5.87,3.66a40.72,40.72,0,0,0,1.55,6.49A5,5,0,0,0,67,75.91c-.39.81.28,2.29.34,3.09a.47.47,0,0,1-.26.48,2.52,2.52,0,0,1-.91-.75c-1.11-1.48-2.4-.83-4.06-1.2s-2-1.2-2.59-2.59a10.59,10.59,0,0,0-2.68-3.41c-.94-1-.69-1-.8-2.16.46.1,1.34-.46,2-1.65C58.75,66.33,59.25,66,60.16,65.78ZM68.3,86.29l0,0Zm-.18-.3v0ZM69,87.2l-.06-.07Zm-.39-.48,0-.06ZM70,88.09,70,88Zm-.58-.41a.23.23,0,0,1-.07-.07A.23.23,0,0,0,69.46,87.68Zm1.26.69-.09,0Zm1.74-18.83.08.07ZM50.91,5.14a.41.41,0,0,0,0-.09.9.9,0,0,1,0,.09ZM50,3.86l-.23-.24ZM50.83,5l-.09-.15A.85.85,0,0,1,50.83,5Zm-.13-.22-.13-.18Zm-.19-.27-.16-.21Zm-.24-.32c-.06-.07-.13-.14-.19-.22Zm-.65-.69-.27-.24ZM5.7,38c0,.08.12.16.18.24C5.82,38.11,5.75,38,5.7,38Zm.5.6.24.23ZM9,58.89h.38ZM3.38,56.34c.22.2.44.4.66.58C3.82,56.74,3.6,56.54,3.38,56.34Zm.86.72c.22.17.44.33.65.47C4.68,57.39,4.46,57.23,4.24,57.06Zm.87.59.62.36Zm.85.46.59.26Zm.82.33c.19.07.38.14.56.19C7.16,58.58,7,58.51,6.78,58.44Zm.79.24.53.11Zm.76.14.49.06Zm2.55,0,.29-.06Zm-1.14.12.37,0Zm.6,0,.33,0ZM12,58.46l.15-.06Zm-.69.21.25-.07Zm.39-.11.2-.06Zm.51-.18.09,0Zm.15-.07a3.5,3.5,0,0,0-.06.47A3.5,3.5,0,0,1,12.39,58.31Zm2.15,32.54a5.09,5.09,0,0,0,1.91.37h-.16A4.1,4.1,0,0,1,14.54,90.85Zm2.15,2.05c0,.12,0,.24,0,.36C16.67,93.14,16.68,93,16.69,92.9ZM17,91.17s-.06.18-.13.48C16.94,91.35,17,91.17,17,91.17Zm-.13.49c0,.09,0,.2-.07.31C16.83,91.86,16.85,91.75,16.87,91.66ZM16.8,92c0,.1,0,.22-.06.34C16.76,92.24,16.78,92.12,16.8,92Zm-.07.41c0,.12,0,.24,0,.36C16.7,92.67,16.72,92.55,16.73,92.43Zm-.05,1c0,.11,0,.23,0,.34C16.68,93.63,16.68,93.51,16.68,93.4Zm6.46,11.8a2,2,0,0,0,.35,0,1.38,1.38,0,0,1-.2,0Zm.46,0a1.81,1.81,0,0,0,.31-.09A1.81,1.81,0,0,1,23.6,105.18ZM24,105a1.21,1.21,0,0,0,.28-.18A1.21,1.21,0,0,1,24,105Zm.39-.27a1.81,1.81,0,0,0,.33-.42A1.81,1.81,0,0,1,24.42,104.77Zm3.11,1.75a.45.45,0,0,0,.34-.14A.45.45,0,0,1,27.53,106.52Zm-2.73-2.1,0,0Zm.21.24,0,0Zm.33.36,0,0Zm.81.78.06,0Zm.46.36a.18.18,0,0,1,.07,0A.18.18,0,0,0,26.61,106.16Zm.47.26.05,0Zm-1.39,7.43a1,1,0,0,0,.39.07h0A1,1,0,0,1,25.69,113.85Zm1.61-.43a1.38,1.38,0,0,1-.25.17A1.38,1.38,0,0,0,27.3,113.42Zm-.41.27-.27.12Zm-.41.17a1.24,1.24,0,0,1-.37.06A1.24,1.24,0,0,0,26.48,113.86Zm1-.56.23-.21Zm.57-.6-.2.24Zm.36-.59a1.88,1.88,0,0,0,.16-.43A1.88,1.88,0,0,1,28.39,112.11Zm-.24.43c.06-.09.11-.19.16-.28C28.26,112.35,28.21,112.45,28.15,112.54Zm7.75-6.44a.67.67,0,0,0,0-.24A.67.67,0,0,1,35.9,106.1Zm-.16.55a3.08,3.08,0,0,0,.15-.42A3.08,3.08,0,0,1,35.74,106.65Zm-.07-1.4a.75.75,0,0,1,.15.2A.75.75,0,0,0,35.67,105.25Zm.19.29a1.17,1.17,0,0,1,0,.2A1.17,1.17,0,0,0,35.86,105.54Zm-.8-.62a1.69,1.69,0,0,1,.24.08A1.69,1.69,0,0,0,35.06,104.92Zm.33.12a1,1,0,0,1,.26.18A1,1,0,0,0,35.39,105Zm-5.25,5.49c.15-1.36.46-3.51,1.56-3.86a8.41,8.41,0,0,1,2.4-.44h.24a7.26,7.26,0,0,1-1.78,1.68A7,7,0,0,0,30.14,110.53Zm1.12-5.23.65-.19Zm.82-.23.64-.14Zm.69-.15.58-.08Zm.74-.09.57,0Zm.66,0,.36,0Zm.5,0,.26,0Zm-3.12,7.75c-.05-.2-.11-.4-.15-.63C31.44,112.18,31.5,112.38,31.55,112.58Zm.43,1.07a3.5,3.5,0,0,1-.2-.39A3.5,3.5,0,0,0,32,113.65Zm-.23-.48a2.84,2.84,0,0,1-.15-.44A2.52,2.52,0,0,0,31.75,113.17Zm.29.57a1.84,1.84,0,0,0,.17.22A1.84,1.84,0,0,1,32,113.74Zm.23.28a.79.79,0,0,0,.23.14A.79.79,0,0,1,32.27,114Zm.27.15a.35.35,0,0,0,.2,0l-.08,0A.53.53,0,0,1,32.54,114.17Zm.25,0a.64.64,0,0,0,.23-.12A.64.64,0,0,1,32.79,114.17Zm.28-.17a1.38,1.38,0,0,0,.23-.28A1.38,1.38,0,0,1,33.07,114ZM44,101.11l.12,0Zm.57-.17h0Zm5.05,1.21.25.09Zm.89.26.16,0Zm.64.07h-.06a1.6,1.6,0,0,0,.44,0A1.58,1.58,0,0,1,51.12,102.48Zm2.27-1,.08-.07Zm-1.3.77.14-.06Zm.52-.23.1,0Zm.48-.29,0,0Zm.55-.51,0,0S53.65,101.24,53.64,101.25Zm3.7,8.93c-3.26-1.49.27-7.33.27-7.33a2.32,2.32,0,0,1-1,.23c-1.71,0-2.7-2.27-2.7-2.27s0,.1-.14.24a2.13,2.13,0,0,0-1.32-2.53c-2-1-6.15-1.21-6.15-1.21s4.22,3.2,2.89,4.71a14.81,14.81,0,0,0-3.68-1.1h.23a8.25,8.25,0,0,0-1.2-1.37c-.85-.86,0-1.28-.14-3.13S43.72,96.14,43,94s-1.43-2-3.13-2.85-.43,2-2.28,4.84c-.63,1-.29-1.14.28-3s.14-2.27.29-3.56.42-2,.57-3.41S37,84.62,36.6,85.9s-1.56.85-3.27,2,.29,1.85,1.85,3.41-1,1.85-2.13,4.27.42,1.57-.57,3.13-1.71.57-3.56.29-1.14-1-2-2-.71,2.41,0,3.69,0,1.71-.14,2.85-2.42-1.71-2.42-1.71a2.88,2.88,0,0,1-1.14,3s-.06.14-.14.37a6.08,6.08,0,0,1-2.69-1.25,13,13,0,0,1-2.31.54c-1.22-.13-1.22-1.9.68-3.53s.54-4.21.54-4.21a3.06,3.06,0,0,1-2.61-2.95,14,14,0,0,0,.77-2.69,8.92,8.92,0,0,1,2.43-3.52c1.62-1.48,2-.54,3.38-1.48s.4-.68.67-2,.82-1.21,1.36-2.16a3.84,3.84,0,0,0,.54-3.24,5.7,5.7,0,0,0-.15-.75,2,2,0,0,0,.28-.06c1.22-.41,1.89-2.17,3-3.11s2-1.89,2-2.43a10.32,10.32,0,0,0-.22-1.9l.76-3.78s.81-2.43.95-3.1,1.08-3.25,1.62-3.65,2-.41,2.43-1.35A27.89,27.89,0,0,1,39.21,54v.07L41,53.81s2.84.13,3.38.27,1.75,0,3,.27.81,1.21.4,1.89-5.81.27-6.62.27A5.17,5.17,0,0,0,39,57.59h1.76c.54,0,3.37.14,4.59.27s2.16-.54,2.84-.27a2.34,2.34,0,0,0,1.13,0,5.68,5.68,0,0,1,2,3.21s0-1.62.54-1.62,1.35.27,1.21-.27-1.89-.27-1.75-.94.81-1,.94-1.62-1.48-4.33-1.48-4.33l-.43,2.44a15.67,15.67,0,0,0-1.41-.69c-.4-1-1.49-3.51-1.49-3.51s.31,2.09.56,3a6.73,6.73,0,0,0-3.18-.57,17.11,17.11,0,0,0-3.78.4,1.93,1.93,0,0,1-1.42-.25c-.1-.46-.11-1,.34-1.23.81-.41,2-.27,2.16-.81s.27-1.36.27-1.36a6.1,6.1,0,0,1-1.89,1.44,1.37,1.37,0,0,0,.41-.26c.19-.25-1.39-.12-3,0s-1.89,1.51-2.58,2.77a10,10,0,0,1-1.69,2.14,19.81,19.81,0,0,1-1.89,1.69,1.5,1.5,0,0,0-.48,1,1.91,1.91,0,0,0-.62.84c-.06.38-.12.82-.15,1.29-.45.5-1,1.07-1.58,1.61-.94.94.13,5.47.13,5.47a11.94,11.94,0,0,1,1.62-4.63c.22,1,.55,2.21.12,2.74A6.15,6.15,0,0,0,30,68.94c0,.16.08.43.12.74-.61.31-1.67,1.52-2.28,1.83a6.56,6.56,0,0,0-2.16,2.16c-.54.81-2.84,2.84-4.05,3.11S18,75.15,16.52,75.29s-1.35,3.24-1.35,3.24a21.62,21.62,0,0,0,1.35-1.75c.42-.63,1.95.1,3.07.54l-.63.13c-1.35.27-1.63,1.62-2,2.57s-2.57.81-3.78.81-1.49,2.3-1.49,2.3l1.76-.68s.4.54,2,.27,1.08-.81,2-1.08,0,0,1.62,1.89c.59.69-.4,1-.81,2s-1,1.08-3,2.83c-1.7,1.48-1.07,1.34-1.16,2.24a3.37,3.37,0,0,1-2.06.69,4.27,4.27,0,0,1-2.42-.83c-2.58-1.76,0-3.66-.14-7.06s1.09-5.16,3.4-7.19c1.31-1.16,1.61-2,1.63-2.45a4.78,4.78,0,0,0,3.27-1.66,14.23,14.23,0,0,1,3.32-1.28c-1.28-.85-4.52.51-5.37,1.28a5.23,5.23,0,0,1-2.95.61,5.76,5.76,0,0,1-1-1.53c-1.35-2.85,3.67-4.89,4.08-6.11a1.51,1.51,0,0,0-.47-1.47c0-.88.19-2.75,2.12-5.23A7.22,7.22,0,0,0,14.72,63a2.51,2.51,0,0,0-.3-.2c-2.07-.72-2.16-2.95-2.09-4a17.13,17.13,0,0,0,1.22-2.59c.27-.68,1.22-1,1.22-1.89s-1.08-1.62-1.22-3.24.27-1.76-.13-2.71-.95-.81-1.22-1.62l.14-1.21A5.43,5.43,0,0,1,9.5,47.46c-1.76.4-5,1.62-5,4.59,0,0,1-2.16,2.16-2.16,0,0-1.21,2.43-.4,3.24s1.19,4.85-3.07,3l0,0A5.65,5.65,0,0,1,1.6,50.7,6.87,6.87,0,0,1,4,48.1a11.37,11.37,0,0,1,2.51-1c2.21-.52,4.77-.83,5.43-2.73,0,0,.1-.16-.11-.28s-.4.1-.4.1c-.56,1.62-2.91,2.17-5,2.66a12.9,12.9,0,0,0-2.69.81A4.65,4.65,0,0,0,1.91,49.5a14.87,14.87,0,0,1,4.37-6.26A4.33,4.33,0,0,0,8,40.2H8a1.78,1.78,0,0,0,.81,0c1.22-.4,2.3,0,2.84-1.48s-.81-2.3,1.76-3,9-.13,8.37-5c0,0-.27,1.75-3.51,2.7s-5.67-1.62-8,1.75a1.7,1.7,0,0,1-.81,2.57,7.38,7.38,0,0,1-3.82.19C4,35.39,6,32.35,6.45,31.7a6.59,6.59,0,0,1,1.41-1.06c.27-.14.67-.31,1.14-.5,2.5-1,7.14-2.9,7.78-8.34-1.54,4.62-5.75,6.35-8.19,7.34-.49.2-.92.38-1.24.55A8.36,8.36,0,0,0,5.41,31.2a1.46,1.46,0,0,0,1,.37H6.37c-.49,0-1.86-.27-1.86-3.27,0-2.83,2.67-3.15,3.89-3.15a5,5,0,0,1,.59,0c-.4-5.84,6-7.33,7.74-8.56a3.05,3.05,0,0,0,1.5-2.85C15.78,9,22.44,8.88,23.93,8.34s3.26-2,7.47-5.3a7.71,7.71,0,0,1,4.81-1.6A10.86,10.86,0,0,1,40.77,2.5a10.88,10.88,0,0,1,4-.86,7.17,7.17,0,0,1,2.91.59L47,2c-3.58,1.77-3.81,6.27-3.73,8.25A8.67,8.67,0,0,1,42.35,15v0a6.41,6.41,0,0,0,1.48-4.86c-.1-2.42.29-6.57,3.91-8a7.23,7.23,0,0,1,1.5.93C46.61,5.37,47.52,9.7,47.52,11s-1.54,3-1.77,3.3c.35-.18,3.12,1.07,3.71-7.6.21-.58,1.14-1.08,1.46-1.5h0l0,0a7.12,7.12,0,0,1,3.71-1.1A8.24,8.24,0,0,1,60.46,7a6.81,6.81,0,0,1,1.68-.22c2.75,0,4.69,1.86,6.06,3.34a3.73,3.73,0,0,1,.69,1.11c-2.47-3.25-6.73-.47-6.73-.47h-.34a1.54,1.54,0,0,1,1.11.77,2.18,2.18,0,0,1,.34,1.79,25.18,25.18,0,0,0-.6,2.82,17.11,17.11,0,0,0,.09,3.07c0,.93-.94,1-1.11,1.79a1.2,1.2,0,0,0,0,.2A3,3,0,0,0,60.84,20c-1.08-.67.27,4.33.27,4.87a18.69,18.69,0,0,0,.4,3.64l.09.28c-3.2-2-6.51-.37-7.79.26s-4.59.14-6.08,1.63a1.64,1.64,0,0,0-.19.25c-.89-.49-2.37-.86-2.59-1.25-.33-.57,0-1.9.19-2.85s-1-2-1-2a25.87,25.87,0,0,1,0,4.46c-.24,1.52-2.76,1.28-2.76,1.28s.15.29.91,1.38,1.52.76,3.22,1.33a8.71,8.71,0,0,1,.95.36,18.07,18.07,0,0,0-.13,2.75,16.37,16.37,0,0,1-.67,3,7.91,7.91,0,0,0,.81,3,9,9,0,0,0,1.35.41,1.51,1.51,0,0,1,.81,2,.5.5,0,0,1-.12.13,3.1,3.1,0,0,0-1.19-.38c-.16-.1-.27-.14-.31,0-1,0-1.49,1.08-2,1.89s-1.62.13-2.3.13,0,1.08,0,1.08,1.63.54,2.3.81a18.9,18.9,0,0,0,3.78.41,2.36,2.36,0,0,1,.4.08A7.25,7.25,0,0,0,50.46,51a.87.87,0,0,0,.93-.07c1.62-.11,2.74,1.57,3.54,2.72.2,1,.86,2.43.69,3.26-.26,1.19-1.57.19-1.57.19-.13.25,1.06.88,1.76.5s.69-1.32,1.06-2-.18-1.26-.44-1.82a.61.61,0,0,0,0-.12l.4.33a2.18,2.18,0,0,1,.95,2A6,6,0,0,0,58,58.67c.06.14.1.29.15.44a4.88,4.88,0,0,0-2,.6c-.94.51-2.26-.56-2.26-.56a8,8,0,0,0,.63,1.38c.38.63,1.19,0,2.64.13a1.18,1.18,0,0,1,1.23,1,.86.86,0,0,0,0,.16A18.66,18.66,0,0,1,57.46,65c-.23.57-1.23,2.12-1.61,3.23a7.33,7.33,0,0,0-.5-1.07c-.47-1,0-1.38.09-2.4s-1.11-2.4-1.11-1.94-1.39,0-1.39,0a3,3,0,0,0-.18,1.2c0,.83-1.76,1.57-1.76,1.57l.47.56c.49.33,1.47.09,2.12,1.29s-.09,1.48.19,4.07.09,1.57,1.57,2.49.92,1.29,1.47,3.42a13.5,13.5,0,0,0,.93,3c.64,1.58.27,1.48.09,3.24s-.74.92-2.59,2.86-.92,1.48-1.57,1.94-1.11.09-2.58-1.2-1.48.55-1.57.83-.47,1.11-1.3.46-1.38-.37-1.75.28c-.22.38-.25.72-.51,1-.52-.64-1.06-1.29-1.43-1.81-1.39-1.94.09-1.85,3.14-3.79s1.2,1.57,3.51,2.68,1.11-1.66,1.29-3,.65-.64,2.31-.73.56-3.42-1.29-4.72-1.11.37-1.66,1.3-1,1.29-2.68.09-.83-2-.83-3.6,1-1.39,1.93-2.59-.18-2.21-.46-3.23A.72.72,0,0,0,48.7,70a8.17,8.17,0,0,0-.84,2.5c-.09,1.11-1.57,2.68-2.68,4.8s-2.3,2-4.15,3.88-.93,1.66-.46,6.19c.44,4.34,1.82,4.1,5,5.05.24.26.48.52.69.77,1,1.2,1.48.37,3.7.46s.92,0,2.58.46.93.47,2.41,1.85.37-2.12.09-3.32.83-2,1.29-3.7,0,0,2.31.46.83.93,2.59,2.4,1,.28,4.62.56S67.54,93,69.57,95a9.15,9.15,0,0,1,1,1.09,10.28,10.28,0,0,0-.29,3.24c-1.74-2.37-2.1-4.9-6.8-5.74,0,0,4.34,2.89,2.77,4.22-1.28,1.08-3,.39-3.54.1.5.29,1.74,1.16,1.25,2.43-.6,1.56-4.34,3.85-4.58,7.83,0,0,1.45-2.53,2.77-1.69a2.81,2.81,0,0,1,.81,3.71,3.21,3.21,0,0,1-2.31.82A7.9,7.9,0,0,1,57.34,110.18ZM6.9,39.15l.25.18ZM8,39.84s0,.11,0,.25C8,40,8,39.84,8,39.84ZM6.47,31.57h0Zm0,.05h0ZM63,110.15a1.49,1.49,0,0,0,.23-.27A1.49,1.49,0,0,1,63,110.15Zm.48-.67c0,.09-.1.18-.16.27C63.33,109.66,63.38,109.57,63.43,109.48Zm.1-.26a2.09,2.09,0,0,0,.08-.23A2.09,2.09,0,0,1,63.53,109.22Zm4.33-7.56,0,0Zm.24.1.05,0Zm.35.11h0Zm.43,0h0Zm.75-.24.08-.07Zm-.5.22.09,0Zm.26-.08.09,0Zm.84-1.62a1.23,1.23,0,0,0,0-.19A1.23,1.23,0,0,1,70.23,100.2Zm-.39,1.27.08-.11Zm.18-.31.06-.14Zm.14-.41a1.49,1.49,0,0,1,0-.18A1.49,1.49,0,0,0,70.16,100.75Zm1.26-12.27h.31Zm-.1-2.19.07,0Zm.11,0,.13,0Zm.22-.06.18,0Zm1.49.16a.75.75,0,0,1,.13.06A.75.75,0,0,0,73.14,86.35ZM72,86.15l.2,0Zm.4,0h0Zm.37.06.16,0Zm.9.49.29.31ZM75,88.14l.08.08Zm-1-1.09.34.38Zm.63.71a.1.1,0,0,1,0,0A.1.1,0,0,0,74.6,87.76Zm.76.76.06,0Zm.38.3,0,0Zm.36.19.06,0Zm.37.09h0Zm.26,0,.06,0Zm-1.8-11.53c0-.24,0-.48,0-.71C75,77,75,77.28,74.93,77.52Zm-.33,2.3c0-.17.05-.32.08-.48C74.65,79.49,74.63,79.65,74.6,79.82Zm.2-1.23c0-.33.09-.64.12-.94C74.89,78,74.85,78.26,74.8,78.59Zm-.22-3.44A3.62,3.62,0,0,1,75,76.68a6.57,6.57,0,0,0-1.34-.44,3,3,0,0,1-1.9-1.42c-.81-1.08.68-1.76,1.22-2.23a1.83,1.83,0,0,0,.31-.42h0A31.36,31.36,0,0,0,74.58,75.15ZM72.9,71c0,.07,0,.14,0,.21S72.92,71.11,72.9,71Zm.15.57a.49.49,0,0,0,0,.11A.49.49,0,0,1,73.05,71.61Zm-.2-.8a3.32,3.32,0,0,1,0-.41A3.32,3.32,0,0,0,72.85,70.81Zm-.22-1.08s0,0,.05.08S72.64,69.76,72.63,69.73Zm.12.24,0,.09Z"/><path class="cls-1" d="M33.19,33.42a.77.77,0,0,0,.74.74.89.89,0,0,0,.93-.68,2.75,2.75,0,0,1,1,.34,2.11,2.11,0,0,1-.72,2.28A3.48,3.48,0,0,0,37,34.68a2,2,0,0,0,.38.21,1.49,1.49,0,0,0,1.78-.28l.44.48.54-5.84a3.13,3.13,0,0,1-2.58.95c-1.9,0-6.25-3.66-9.1-2s-3.26,3-3.26,3,2.72-2.71,4.21-2.58c.8.08,2.3,1.08,3.84,2a6,6,0,0,0-4,1.35c-1.89,2-4.86,5.41-4.86,5.41s2.3.13,3.11-1.49A7.37,7.37,0,0,1,34,32c-5.7.83-5.22,5-5.22,5S30.15,33.62,33.19,33.42Z"/><path class="cls-1" d="M39.49,44.62c-1.48.54-1.62,2.57-1.62,2.57A4.19,4.19,0,0,1,39,46.24a.92.92,0,0,0,1.08.95c1.08-.14,1.22-.81,1.22-.81S41,44.08,39.49,44.62Z"/><path class="cls-1" d="M53.54,45.57a.56.56,0,0,0,.07.19C53.57,45.57,53.54,45.48,53.54,45.57Z"/><path class="cls-1" d="M16.79,21.71s0,.06,0,.09a.78.78,0,0,1,0-.14Z"/><path class="cls-1" d="M57.56,18.12a10.14,10.14,0,0,0,1-4.77c-.22-2.44-3.08-1.27-3.08-1.27C56.5,9.53,61,9.75,61,9.75c-3.7-2-7.1,1.9-7.94,3.07a17.82,17.82,0,0,1-3.08,2.75s3.71.85,5.2,1.27A6.83,6.83,0,0,1,57.56,18.12Z"/><path class="cls-1" d="M38.62,23.2a11.7,11.7,0,0,0,3.46,1.2c.18,1,.45,3.59-1.26,4.55.09.28,2.43-.63,2-4.49h.11a3.94,3.94,0,0,0,.6,0c.47-.07,1.2-.27,2.13-.51,3-.8,8-2.14,10.49-.91-1.7-1.21-4.74-1.07-7-.17-1.31.26-2.63.28-3.67.56s-1.63.43-2.07.5C41.69,24.17,38.93,23.06,38.62,23.2Z"/><path class="cls-1" d="M56.17,23l0,0s0,0,0,0Z"/><path class="cls-1" d="M38.59,23.21s0,0,0,0h0Z"/><path class="cls-1" d="M40.57,68.5l-.07.23A6.63,6.63,0,0,1,39.66,75c-.84,1.37-1.52,1.52-3.72,2.74A58.77,58.77,0,0,0,31,81c-2.65,1.75-2.27.68-2.58,1.6a.84.84,0,0,1-.23.38,3.86,3.86,0,0,1,.75-3,3.38,3.38,0,0,1,1.95-1c1.12-.33,2.39-.69,2.73-2.72v0c-.56,1.6-1.76,1.91-2.87,2.23a3.84,3.84,0,0,0-2.23,1.24A3.29,3.29,0,0,0,28.09,83a6.94,6.94,0,0,0-2.17,1.78c-1.37,1.75.53,1.37,1.9,2.28s0,1.14.07,2.13a3.07,3.07,0,0,1-.53,2.2c-.53,1.06-2.81,1.14-4.1,1.06s-4,2.05-4,2.05c3.49-2.81,5.23.68,8.5-1.29s1.67-4.33,1.59-5.09.54-.91,1.9-3.34,3.42-1.44,5.54-2.2.76-2,1.45-3.34,2.5-2,3.64-4.86S40.57,68.5,40.57,68.5Z"/><path class="cls-1" d="M48.79,68.94c.18-.74-1.11-2.31-1.85-4.62s.83-3.42.46-3.69v-.37a8.2,8.2,0,0,0-1.48,4.24c.1,2,1,2.59,1.76,3.79S48.6,69.68,48.79,68.94Z"/><path class="cls-1" d="M37.86,37.66c-1.86,1.78-8.79,2.15-8.79,2.15C36.49,40,37.61,38.43,37.86,37.66Z"/><path class="cls-1" d="M10.44,32s4.75,1.69,8.93-.91c2.38-1.35,1.36-5.76,1.36-5.76C20.5,31,10.44,32,10.44,32Z"/><path class="cls-1" d="M30.45,18.35c1.25.22-.45-2.49-2.71-2.49s-3.39,2.37-3.39,2.37a26.71,26.71,0,0,0,2.49-1C28.31,16.54,29.21,18.12,30.45,18.35Z"/><path class="cls-1" d="M49.79,20c-.45-.34-1.13-.56-2.15-1.13s-1.47,1.47-1.92,1.58a10.68,10.68,0,0,0-1.58.79s4-.22,5-.22S50.24,20.38,49.79,20Z"/><path class="cls-1" d="M24.8,62a57.47,57.47,0,0,1-2.94,5.66c-.79,1,1,2.14,1,2.14a14.22,14.22,0,0,0,1.58-1.47C24.8,67.87,27,62.9,27,62.9l-3.51,4.18Z"/><path class="cls-1" d="M19.15,54.64c.11-.34.11-2.94.11-2.94l-1,.34s.68-5.31.23-5.31-1.13.79-1,1.24.68,3.39-.23,3.85a5,5,0,0,1-2.26.33s-.22,1.14.57,1.36,2,.79,2.15,1.13S19,55,19.15,54.64Z"/><path class="cls-1" d="M19.6,37.34a14.06,14.06,0,0,1-1.24,3.28c-.68,1.36,0,3.62,0,3.62a18.19,18.19,0,0,1,1.92-4.3,3.14,3.14,0,0,0,.34-2.48C20.5,36.44,19.71,36.66,19.6,37.34Z"/><path class="cls-1" d="M62.67,97.9a1.14,1.14,0,0,0-.19-.1Z"/><path class="cls-1" d="M62,99.36S58.14,95.14,57.42,96s1.44,2.41,1.92,2.65A23.3,23.3,0,0,0,62,99.36Z"/><path class="cls-1" d="M44.37,61.66a4.31,4.31,0,0,0-1.62,1.46,4.23,4.23,0,0,0-.21,2.76A6.78,6.78,0,0,1,44.37,61.66Z"/><path class="cls-1" d="M17.83,61.47c-.43.77.59,1.28.59,1.28a4.46,4.46,0,0,0,1.37-1c.59-.68.34-4.1.34-4.1S18.25,60.7,17.83,61.47Z"/><path class="cls-1" d="M24.39,23.7c.34-1,.68-2.38.68-2.38-.94.76-2.47,4.69-3.07,6.14s.09,2,.09,2S24.05,24.73,24.39,23.7Z"/><path class="cls-1" d="M37.52,9.81A5.2,5.2,0,0,1,38.63,11s-2.22-4.94.51-7.93A1.49,1.49,0,0,0,37,4a5.3,5.3,0,0,0-.6,3.15A3.49,3.49,0,0,0,37.52,9.81Z"/></g></g></svg>